<?xml version="1.0" encoding="UTF-8" standalone="no"?>
<!DOCTYPE svg PUBLIC "-//W3C//DTD SVG 1.1//EN"
 "http://www.w3.org/Graphics/SVG/1.1/DTD/svg11.dtd">
<!-- Generated by graphviz version 2.40.1 (20161225.0304)
 -->
<!-- Title: G Pages: 1 -->
<svg width="348pt" height="436pt"
 viewBox="0.00 0.00 348.11 436.00" xmlns="http://www.w3.org/2000/svg" xmlns:xlink="http://www.w3.org/1999/xlink">
<g id="graph0" class="graph" transform="scale(1 1) rotate(0) translate(4 432)">
<title>G</title>
<polygon fill="#ffffff" stroke="transparent" points="-4,4 -4,-432 344.1059,-432 344.1059,4 -4,4"/>
<g id="clust1" class="cluster">
<title>cluster_Global</title>
<path fill="none" stroke="#c0c0c0" d="M26.1406,-44C26.1406,-44 320.1059,-44 320.1059,-44 326.1059,-44 332.1059,-50 332.1059,-56 332.1059,-56 332.1059,-408 332.1059,-408 332.1059,-414 326.1059,-420 320.1059,-420 320.1059,-420 26.1406,-420 26.1406,-420 20.1406,-420 14.1406,-414 14.1406,-408 14.1406,-408 14.1406,-56 14.1406,-56 14.1406,-50 20.1406,-44 26.1406,-44"/>
<text text-anchor="middle" x="173.1232" y="-407.2" font-family="Times,serif" font-size="11.00" fill="#c0c0c0">Global</text>
</g>
<g id="clust2" class="cluster">
<title>cluster_\Repository</title>
<path fill="none" stroke="#c0c0c0" d="M224.893,-131C224.893,-131 312.1059,-131 312.1059,-131 318.1059,-131 324.1059,-137 324.1059,-143 324.1059,-143 324.1059,-352 324.1059,-352 324.1059,-358 318.1059,-364 312.1059,-364 312.1059,-364 224.893,-364 224.893,-364 218.893,-364 212.893,-358 212.893,-352 212.893,-352 212.893,-143 212.893,-143 212.893,-137 218.893,-131 224.893,-131"/>
<text text-anchor="middle" x="268.4994" y="-351.2" font-family="Times,serif" font-size="11.00" fill="#c0c0c0">Repository</text>
</g>
<g id="clust3" class="cluster">
<title>cluster_\Entities</title>
<path fill="none" stroke="#c0c0c0" d="M34.1406,-52C34.1406,-52 114.7524,-52 114.7524,-52 120.7524,-52 126.7524,-58 126.7524,-64 126.7524,-64 126.7524,-381 126.7524,-381 126.7524,-387 120.7524,-393 114.7524,-393 114.7524,-393 34.1406,-393 34.1406,-393 28.1406,-393 22.1406,-387 22.1406,-381 22.1406,-381 22.1406,-64 22.1406,-64 22.1406,-58 28.1406,-52 34.1406,-52"/>
<text text-anchor="middle" x="74.4465" y="-380.2" font-family="Times,serif" font-size="11.00" fill="#c0c0c0">Entities</text>
</g>
<g id="clust4" class="cluster">
<title>cluster_\App</title>
<path fill="none" stroke="#c0c0c0" d="M244.6962,-52C244.6962,-52 292.3026,-52 292.3026,-52 298.3026,-52 304.3026,-58 304.3026,-64 304.3026,-64 304.3026,-111 304.3026,-111 304.3026,-117 298.3026,-123 292.3026,-123 292.3026,-123 244.6962,-123 244.6962,-123 238.6962,-123 232.6962,-117 232.6962,-111 232.6962,-111 232.6962,-64 232.6962,-64 232.6962,-58 238.6962,-52 244.6962,-52"/>
<text text-anchor="middle" x="268.4994" y="-110.2" font-family="Times,serif" font-size="11.00" fill="#c0c0c0">App</text>
</g>
<!-- \\Repository\\User -->
<g id="node1" class="node">
<title>\\Repository\\User</title>
<polygon fill="none" stroke="#000000" points="295.4994,-175 241.4994,-175 241.4994,-139 295.4994,-139 295.4994,-175"/>
<text text-anchor="middle" x="268.4994" y="-153.7" font-family="Courier,monospace" font-size="11.00" fill="#000000">User</text>
</g>
<!-- \\Entities\\Database -->
<g id="node12" class="node">
<title>\\Entities\\Database</title>
<ellipse fill="none" stroke="#000000" cx="74.4465" cy="-18" rx="74.393" ry="18"/>
<text text-anchor="middle" x="74.4465" y="-13.8" font-family="Times,serif" font-size="14.00" fill="#c0c0c0">\Entities\Database</text>
</g>
<!-- \\Repository\\User&#45;&gt;\\Entities\\Database -->
<g id="edge1" class="edge">
<title>\\Repository\\User&#45;&gt;\\Entities\\Database</title>
<path fill="none" stroke="#000000" d="M241.4086,-145.102C231.8754,-140.2335 221.4211,-134.0721 212.893,-127 178.1097,-98.1556 185.2319,-74.8581 148.893,-48 143.0378,-43.6724 136.4715,-39.8617 129.7282,-36.537"/>
<polygon fill="none" stroke="#000000" points="131.0229,-33.2804 120.4733,-32.3018 128.11,-39.6456 131.0229,-33.2804"/>
</g>
<!-- \\Repository\\Tags -->
<g id="node2" class="node">
<title>\\Repository\\Tags</title>
<polygon fill="none" stroke="#000000" points="295.4994,-283 241.4994,-283 241.4994,-247 295.4994,-247 295.4994,-283"/>
<text text-anchor="middle" x="268.4994" y="-261.7" font-family="Courier,monospace" font-size="11.00" fill="#000000">Tags</text>
</g>
<!-- \\Entities\\DataBase -->
<g id="node7" class="node">
<title>\\Entities\\DataBase</title>
<polygon fill="none" stroke="#000000" points="108.7553,-258 40.1376,-258 40.1376,-222 108.7553,-222 108.7553,-258"/>
<text text-anchor="middle" x="74.4465" y="-236.7" font-family="Courier,monospace" font-size="11.00" fill="#000000">DataBase</text>
</g>
<!-- \\Repository\\Tags&#45;&gt;\\Entities\\DataBase -->
<g id="edge2" class="edge">
<title>\\Repository\\Tags&#45;&gt;\\Entities\\DataBase</title>
<path fill="none" stroke="#000000" d="M241.108,-261.4711C209.4033,-257.3866 156.7326,-250.601 119.0877,-245.7512"/>
<polygon fill="none" stroke="#000000" points="119.2635,-242.245 108.8982,-244.4384 118.369,-249.1876 119.2635,-242.245"/>
</g>
<!-- \\Repository\\DisplayBoard -->
<g id="node3" class="node">
<title>\\Repository\\DisplayBoard</title>
<polygon fill="none" stroke="#000000" points="316.2126,-229 220.7863,-229 220.7863,-193 316.2126,-193 316.2126,-229"/>
<text text-anchor="middle" x="268.4994" y="-207.7" font-family="Courier,monospace" font-size="11.00" fill="#000000">DisplayBoard</text>
</g>
<!-- \\Repository\\DisplayBoard&#45;&gt;\\Entities\\DataBase -->
<g id="edge3" class="edge">
<title>\\Repository\\DisplayBoard&#45;&gt;\\Entities\\DataBase</title>
<path fill="none" stroke="#000000" d="M220.5313,-218.1685C189.3727,-222.825 149.0544,-228.8503 118.6702,-233.391"/>
<polygon fill="none" stroke="#000000" points="118.1473,-229.9302 108.7744,-234.8699 119.1819,-236.8534 118.1473,-229.9302"/>
</g>
<!-- \\Repository\\PostHit -->
<g id="node4" class="node">
<title>\\Repository\\PostHit</title>
<polygon fill="none" stroke="#000000" points="299.7073,-337 237.2916,-337 237.2916,-301 299.7073,-301 299.7073,-337"/>
<text text-anchor="middle" x="268.4994" y="-315.7" font-family="Courier,monospace" font-size="11.00" fill="#000000">PostHit</text>
</g>
<!-- \\Repository\\PostHit&#45;&gt;\\Entities\\DataBase -->
<g id="edge4" class="edge">
<title>\\Repository\\PostHit&#45;&gt;\\Entities\\DataBase</title>
<path fill="none" stroke="#000000" d="M237.2447,-304.7771C213.2421,-294.0093 179.1843,-279.0642 148.893,-267 139.1168,-263.1064 128.5317,-259.1276 118.4952,-255.4624"/>
<polygon fill="none" stroke="#000000" points="119.6793,-252.1688 109.085,-252.0576 117.2976,-258.7512 119.6793,-252.1688"/>
</g>
<!-- \\Entities\\StatusType -->
<g id="node5" class="node">
<title>\\Entities\\StatusType</title>
<polygon fill="none" stroke="#000000" points="115.4572,-366 33.4357,-366 33.4357,-330 115.4572,-330 115.4572,-366"/>
<text text-anchor="middle" x="74.4465" y="-344.7" font-family="Courier,monospace" font-size="11.00" fill="#000000">StatusType</text>
</g>
<!-- \\Entities\\Error -->
<g id="node6" class="node">
<title>\\Entities\\Error</title>
<polygon fill="none" stroke="#000000" points="101.4465,-312 47.4465,-312 47.4465,-276 101.4465,-276 101.4465,-312"/>
<text text-anchor="middle" x="74.4465" y="-290.7" font-family="Courier,monospace" font-size="11.00" fill="#000000">Error</text>
</g>
<!-- \\Entities\\DataChecker -->
<g id="node8" class="node">
<title>\\Entities\\DataChecker</title>
<polygon fill="none" stroke="#000000" points="118.5592,-204 30.3338,-204 30.3338,-168 118.5592,-168 118.5592,-204"/>
<text text-anchor="middle" x="74.4465" y="-182.7" font-family="Courier,monospace" font-size="11.00" fill="#000000">DataChecker</text>
</g>
<!-- \\Entities\\OpinionType -->
<g id="node9" class="node">
<title>\\Entities\\OpinionType</title>
<polygon fill="none" stroke="#000000" points="118.5592,-150 30.3338,-150 30.3338,-114 118.5592,-114 118.5592,-150"/>
<text text-anchor="middle" x="74.4465" y="-128.7" font-family="Courier,monospace" font-size="11.00" fill="#000000">OpinionType</text>
</g>
<!-- \\Entities\\User -->
<g id="node10" class="node">
<title>\\Entities\\User</title>
<polygon fill="none" stroke="#000000" points="101.4465,-96 47.4465,-96 47.4465,-60 101.4465,-60 101.4465,-96"/>
<text text-anchor="middle" x="74.4465" y="-74.7" font-family="Courier,monospace" font-size="11.00" fill="#000000">User</text>
</g>
<!-- \\App\\PliApp -->
<g id="node11" class="node">
<title>\\App\\PliApp</title>
<polygon fill="none" stroke="#000000" points="296.1073,-96 240.8916,-96 240.8916,-60 296.1073,-60 296.1073,-96"/>
<text text-anchor="middle" x="268.4994" y="-74.7" font-family="Courier,monospace" font-size="11.00" fill="#000000">PliApp</text>
</g>
</g>
</svg>
